<?xml version="1.0" encoding="utf-8"?>
<!-- Generator: Adobe Illustrator 16.0.0, SVG Export Plug-In . SVG Version: 6.00 Build 0)  -->
<!DOCTYPE svg PUBLIC "-//W3C//DTD SVG 1.1//EN" "http://www.w3.org/Graphics/SVG/1.1/DTD/svg11.dtd">
<svg version="1.1" id="Ebene_1" xmlns="http://www.w3.org/2000/svg" xmlns:xlink="http://www.w3.org/1999/xlink" x="0px" y="0px"
	 width="200px" height="124px" viewBox="0 0 200 124" enable-background="new 0 0 200 124" xml:space="preserve">
<circle fill="#EE7F00" cx="100.542" cy="62.274" r="59.301"/>
<g>
	<path fill="#568956" d="M132.171,54.126c0,0-1.815-0.28-3.366,1.088c-1.553,1.367-1.69,1.624-2.127,2.209s3.364,0.792,4.855-1.687
		C133.022,53.259,132.171,54.126,132.171,54.126"/>
	<path fill="#568956" d="M131.693,57.787c0,0,1.396,0.86,1.658,2.687c0.264,1.826,0.208,2.081,0.166,2.731
		c-0.04,0.649-2.742-1.409-2.321-3.954S131.693,57.787,131.693,57.787"/>
	<path fill="#568956" d="M128.826,61.491c0,0-0.996-0.85-2.449-0.602c-1.454,0.248-1.635,0.353-2.119,0.543
		c-0.484,0.191,1.746,1.742,3.577,0.797C129.668,61.284,128.826,61.491,128.826,61.491"/>
	<path fill="#568956" d="M128.199,63.137c0,0-0.961,0.672-1.072,1.987c-0.112,1.315-0.062,1.495-0.004,1.957
		c0.056,0.462,1.899-1.12,1.492-2.92S128.199,63.137,128.199,63.137"/>
	<path fill="#568956" d="M125.053,64.644c0,0-0.491-0.914-1.634-1.148c-1.144-0.236-1.307-0.209-1.719-0.208
		c-0.412,0.001,0.785,1.785,2.409,1.616C125.731,64.732,125.053,64.644,125.053,64.644"/>
	<path fill="#568956" d="M124.316,65.506c0,0-0.907,0.159-1.425,1.057c-0.517,0.899-0.541,1.044-0.654,1.392
		c-0.114,0.349,1.724-0.165,2.035-1.58C124.581,64.958,124.316,65.506,124.316,65.506"/>
	<path fill="#568956" d="M131.536,43.926c0.642,0.244,0.762,0.521,0.917,0.948c0.581,1.591,1.788,5.603,0.704,9.149
		c-1.346,4.406-3.579,8.139-5.293,9.731s-6.396,2.907-7.497,2.57c-0.186-0.058,1.867-1.01,4.405-1.744
		c2.371-0.686,7.192-6.488,7.772-12.974c0.24-2.683-0.285-4.54-1.286-6.763C130.985,44.232,131.003,43.724,131.536,43.926"/>
</g>
<path fill="#568956" d="M133.31,52.157c0,0,2.112,0.949,2.814,3.458c0.706,2.51,0.675,2.877,0.735,3.794
	c0.062,0.919-4.101-1.468-3.978-5.109C133.004,50.657,133.31,52.157,133.31,52.157"/>
<path fill="#21456E" d="M96.519,79.468c-1.108,0.3-4.395,1.697-3.048,7.534c0.003,0.016,0.007,0.031,0.014,0.045
	c0.118,0.382,1.727,5.646-1.791,3.842c-0.2-0.104-0.443-0.059-0.6,0.103c-0.658,0.678-2.434,2.192-3.83,0.479
	c-0.173-0.211-0.484-0.242-0.703-0.082c-0.75,0.548-2.369,1.44-3.501-0.013c-0.157-0.202-0.437-0.265-0.66-0.14
	c-0.647,0.362-1.919,0.888-2.582-0.108c-0.17-0.255-0.519-0.298-0.757-0.105c-0.252,0.203-1.443,0.792-2.406-0.264
	c-0.782-0.856-2.953,0.985-1.469-2.479c1.484-3.464,11.786-10.371,13.482-10.654c1.423-0.237,6.281,0.571,7.807,0.837
	c0.263,0.045,0.446,0.283,0.424,0.55C96.882,79.229,96.729,79.411,96.519,79.468"/>
<g>
	<g opacity="0.4">
		<path fill="#393738" d="M134.135,52.541c0,0,1.483-8.341,9.33-16.894c0,0,4.1-6.645-6.361,2.898c0,0,4.594-6.928-2.332-0.564
			c-6.928,6.362-7.211,12.653-7.211,12.653s8.2-17.319-0.283-6.504c0,0-4.383,6.08-4.665,10.887c0,0-0.071-3.818,1.413-6.998
			c1.484-3.182-2.474,0-5.089,10.886s3.252,5.019,3.252,5.019s7.917-2.544,8.836-5.23C131.942,56.005,134.135,52.541,134.135,52.541
			"/>
	</g>
	<g>
		<path fill="#D1D1D1" d="M126.135,44.541c0,0,1.483-8.341,9.33-16.894c0,0,4.1-6.645-6.361,2.898c0,0,4.594-6.928-2.332-0.564
			c-6.928,6.362-7.211,12.653-7.211,12.653s8.2-17.319-0.283-6.504c0,0-4.383,6.08-4.665,10.887c0,0-0.071-3.818,1.413-6.998
			c1.484-3.182-2.474,0-5.089,10.886s3.252,5.019,3.252,5.019s7.917-2.545,8.836-5.231
			C123.942,48.005,126.135,44.541,126.135,44.541"/>
	</g>
</g>
<path fill="#D5D5D5" d="M133.813,47.575c0,0-2.63,2.376-4.844,1.289c-2.21-1.089-0.088-1.666-0.088-1.666s4.152-0.015,4.43,0.104
	C133.59,47.421,133.813,47.575,133.813,47.575"/>
<path fill="#8E8E8E" d="M129.152,45.504c0,0,2.723,0.088,5.086,1.812c0.106,0.077,0.085,0.242-0.037,0.292
	c-0.722,0.299-2.801,1.004-4.743,0.202C127.058,46.818,129.152,45.504,129.152,45.504"/>
<g>
	<g opacity="0.4">
		<path fill="#393738" d="M138.729,54.663c0,0-1.413-4.384-5.16-4.101c-3.746,0.283-3.746,0.424-5.725,3.888
			c-1.98,3.464-6.646,8.483-12.019,2.051c-5.371-6.434-10.886-11.311-19.438-13.077c-8.554-1.769-19.652-5.162-24.035-9.12
			c0,0-2.262,0.212,3.888,6.009c0,0,3.18,2.686-0.919,0.353s0.142,4.241,11.099,9.472c0,0-18.309-8.341-2.899,2.403
			c0,0,5.231,2.687,7.847,3.111c2.615,0.424-21.701-5.584-7.21,1.132c0,0,8.13,3.747,12.018,4.241s-23.187-3.818-8.059,2.12
			c0,0,5.16,1.768,9.047,2.051c0,0-19.156,2.049-1.555,3.322c0,0,4.101,0.281,6.081,0c1.978-0.283-22.269,2.687-3.888,3.534
			c0,0,3.958,0.211,5.866-0.495c0,0-18.378,3.676-3.392,3.605c0,0,1.697,0.141,2.756-0.07c1.062-0.213-10.321,2.615-1.06,2.332
			c0,0-21.348,15.057-19.298,20.429c0,0-0.142,2.333,3.252-1.767c3.392-4.1,7.917-8.553,15.764-7.917
			c7.846,0.636,24.316,3.322,28.771-18.874c0,0,1.908-7.777,6.432-10.392C136.891,58.904,138.871,57.985,138.729,54.663"/>
	</g>
	<g>
		<path fill="#FFFFFF" d="M130.729,46.663c0,0-1.413-4.384-5.16-4.101c-3.746,0.283-3.746,0.424-5.725,3.888
			c-1.98,3.464-6.646,8.483-12.019,2.051c-5.371-6.434-10.886-11.311-19.438-13.077c-8.554-1.769-19.652-5.162-24.035-9.12
			c0,0-2.262,0.212,3.888,6.009c0,0,3.18,2.686-0.919,0.353s0.142,4.241,11.099,9.472c0,0-18.309-8.341-2.899,2.403
			c0,0,5.231,2.687,7.847,3.111c2.615,0.424-21.701-5.584-7.21,1.132c0,0,8.13,3.747,12.018,4.241s-23.187-3.818-8.059,2.12
			c0,0,5.16,1.769,9.047,2.051c0,0-19.156,2.05-1.555,3.322c0,0,4.101,0.282,6.081,0c1.978-0.282-22.269,2.687-3.888,3.535
			c0,0,3.958,0.211,5.866-0.495c0,0-18.379,3.676-3.393,3.605c0,0,1.697,0.141,2.756-0.07c1.061-0.213-10.321,2.615-1.06,2.332
			c0,0-21.348,15.057-19.298,20.429c0,0-0.142,2.333,3.252-1.767c3.392-4.1,7.917-8.553,15.764-7.917
			c7.846,0.636,24.316,3.322,28.771-18.874c0,0,1.908-7.777,6.432-10.392C128.891,50.904,130.871,49.985,130.729,46.663"/>
	</g>
</g>
<path fill="#FFFFFF" d="M129.734,46.19c0,0.332,0.346,0.602,0.771,0.602c0.426,0,0.771-0.27,0.771-0.602
	c0-0.333-0.346-0.603-0.771-0.603C130.08,45.588,129.734,45.857,129.734,46.19"/>
<path fill="#7A786E" d="M124.572,44.839c0,0.552,0.447,1,1,1s1-0.448,1-1c0-0.554-0.447-1-1-1S124.572,44.285,124.572,44.839"/>
<g>
	<rect x="168.512" y="83.125" fill="#D1D1D1" width="29.738" height="25.974"/>
	<rect x="3.005" y="83.125" fill="#D1D1D1" width="29.545" height="25.974"/>
	<polygon fill="#8E8E8E" points="184.095,99.958 168.512,109.098 168.512,99.958 	"/>
	<polygon fill="#8E8E8E" points="16.965,99.958 32.55,109.098 32.55,99.958 	"/>
	<rect x="16.71" y="73.985" fill="#FFFFFF" width="167.384" height="25.974"/>
</g>
<g>
	<path fill="#393738" d="M33.097,80.413v10.963H31.46V80.413h-2.936v-1.629h7.508v1.629H33.097z"/>
	<path fill="#393738" d="M38.009,78.784h1.637v5.367c0.457-0.876,1.118-1.314,1.983-1.314s1.557,0.311,2.074,0.933
		c0.517,0.622,0.783,1.402,0.799,2.342v5.265h-1.629v-5.202c0-0.467-0.133-0.867-0.397-1.2c-0.265-0.333-0.684-0.5-1.255-0.5
		c-0.677,0-1.202,0.362-1.574,1.086v5.816h-1.637V78.784z"/>
	<path fill="#393738" d="M49.784,89.542c0.273,0.241,0.769,0.362,1.488,0.362c0.776,0,1.44-0.272,1.991-0.818
		c0.068-0.073,0.207-0.236,0.417-0.488l1.629,0.583c-0.399,0.551-0.688,0.915-0.866,1.094c-0.876,0.876-1.933,1.314-3.171,1.314
		c-1.233,0-2.288-0.438-3.164-1.314c-0.876-0.876-1.314-1.934-1.314-3.172s0.438-2.295,1.314-3.172
		c0.876-0.876,1.931-1.314,3.164-1.314c1.06,0,1.988,0.32,2.786,0.961c0.131,0.109,0.26,0.228,0.386,0.354
		c0.053,0.053,0.202,0.218,0.449,0.496l-0.818,0.826L49.784,89.542z M52.507,84.505c-0.184-0.143-0.595-0.213-1.235-0.213
		c-0.771,0-1.431,0.274-1.979,0.822c-0.548,0.549-0.822,1.211-0.822,1.987c0,0.635,0.071,1.047,0.212,1.235L52.507,84.505z"/>
	<path fill="#393738" d="M74.256,89.652c-1.296,1.238-2.778,1.857-4.447,1.857c-1.779,0-3.295-0.627-4.549-1.881
		s-1.881-2.771-1.881-4.549c0-1.773,0.627-3.29,1.881-4.549c1.254-1.26,2.77-1.889,4.549-1.889c1.663,0,3.24,0.679,4.73,2.038
		l-1.22,1.109c-1.123-0.997-2.293-1.495-3.51-1.495c-1.317,0-2.444,0.467-3.38,1.4c-0.937,0.935-1.405,2.063-1.405,3.385
		c0,1.327,0.468,2.458,1.405,3.392c0.937,0.935,2.063,1.401,3.38,1.401c1.133,0,2.072-0.3,2.817-0.897v-3.801h1.629V89.652z"/>
	<path fill="#393738" d="M78.735,84.372c0.608-0.824,1.356-1.257,2.243-1.299v1.691c-0.593,0.032-1.065,0.224-1.417,0.575
		c-0.53,0.524-0.805,1.148-0.826,1.873v4.163h-1.629v-8.099h1.629V84.372z"/>
	<path fill="#393738" d="M85.45,89.542c0.273,0.241,0.769,0.362,1.488,0.362c0.776,0,1.44-0.272,1.991-0.818
		c0.068-0.073,0.207-0.236,0.417-0.488l1.629,0.583c-0.399,0.551-0.688,0.915-0.866,1.094c-0.876,0.876-1.933,1.314-3.171,1.314
		c-1.233,0-2.288-0.438-3.164-1.314c-0.876-0.876-1.314-1.934-1.314-3.172s0.438-2.295,1.314-3.172
		c0.876-0.876,1.931-1.314,3.164-1.314c1.06,0,1.988,0.32,2.786,0.961c0.131,0.109,0.26,0.228,0.386,0.354
		c0.053,0.053,0.202,0.218,0.449,0.496l-0.818,0.826L85.45,89.542z M88.173,84.505c-0.184-0.143-0.595-0.213-1.235-0.213
		c-0.771,0-1.431,0.274-1.979,0.822c-0.548,0.549-0.822,1.211-0.822,1.987c0,0.635,0.071,1.047,0.212,1.235L88.173,84.505z"/>
	<path fill="#393738" d="M95.786,89.542c0.273,0.241,0.769,0.362,1.488,0.362c0.776,0,1.44-0.272,1.991-0.818
		c0.068-0.073,0.207-0.236,0.417-0.488l1.629,0.583c-0.399,0.551-0.688,0.915-0.866,1.094c-0.876,0.876-1.933,1.314-3.171,1.314
		c-1.233,0-2.288-0.438-3.164-1.314c-0.876-0.876-1.314-1.934-1.314-3.172s0.438-2.295,1.314-3.172
		c0.876-0.876,1.931-1.314,3.164-1.314c1.06,0,1.988,0.32,2.786,0.961c0.131,0.109,0.26,0.228,0.386,0.354
		c0.053,0.053,0.202,0.218,0.449,0.496l-0.818,0.826L95.786,89.542z M98.509,84.505c-0.184-0.143-0.595-0.213-1.235-0.213
		c-0.771,0-1.431,0.274-1.979,0.822c-0.548,0.549-0.822,1.211-0.822,1.987c0,0.635,0.071,1.047,0.212,1.235L98.509,84.505z"/>
	<path fill="#393738" d="M105.239,85.45v5.926h-1.637v-8.099h1.637v0.944c0.341-0.923,1.025-1.385,2.054-1.385
		c0.877,0,1.573,0.311,2.09,0.933s0.783,1.402,0.799,2.342v5.265h-1.629v-5.202c0-0.467-0.171-0.867-0.512-1.2s-0.748-0.5-1.22-0.5
		c-0.467,0-0.871,0.163-1.212,0.488C105.42,85.156,105.297,85.318,105.239,85.45z"/>
	<path fill="#393738" d="M121.494,78.784c0.729,0,1.354,0.258,1.873,0.774c0.52,0.518,0.779,1.141,0.779,1.869
		c0,0.751-0.378,1.215-1.134,1.394c0.546,0.079,1.166,0.467,1.861,1.165c0.695,0.697,1.043,1.663,1.043,2.896
		c0,1.233-0.433,2.299-1.299,3.195c-0.813,0.845-1.629,1.272-2.447,1.283v0.016h-3.227V78.784H121.494z M120.573,80.413v1.991h1.063
		c0.241-0.021,0.448-0.113,0.622-0.275c0.188-0.174,0.283-0.407,0.283-0.701c0-0.293-0.099-0.536-0.295-0.728
		c-0.197-0.191-0.448-0.287-0.752-0.287H120.573z M120.573,84.08v5.659h1.598v-0.023c0.336-0.021,0.753-0.292,1.251-0.812
		c0.552-0.566,0.827-1.24,0.827-2.022c0-0.771-0.274-1.431-0.823-1.979c-0.548-0.549-1.208-0.823-1.979-0.823H120.573z"/>
	<path fill="#393738" d="M129.838,84.372c0.608-0.824,1.356-1.257,2.243-1.299v1.691c-0.593,0.032-1.065,0.224-1.417,0.575
		c-0.529,0.524-0.806,1.148-0.826,1.873v4.163h-1.629v-8.099h1.629V84.372z"/>
	<path fill="#393738" d="M141.085,83.844v-0.567h1.638v8.106h-1.638v-1.016c-0.786,0.813-1.699,1.221-2.738,1.221
		c-1.238,0-2.294-0.438-3.168-1.311c-0.873-0.874-1.311-1.93-1.311-3.168s0.438-2.294,1.311-3.168c0.874-0.873,1.93-1.31,3.168-1.31
		C139.386,82.632,140.299,83.036,141.085,83.844z M141.085,87.708v-1.196c-0.094-0.509-0.346-0.971-0.755-1.386
		c-0.551-0.546-1.212-0.818-1.983-0.818c-0.776,0-1.439,0.272-1.987,0.818s-0.822,1.207-0.822,1.983
		c0,0.771,0.274,1.432,0.822,1.979s1.211,0.822,1.987,0.822c0.771,0,1.433-0.272,1.983-0.818
		C140.739,88.679,140.991,88.217,141.085,87.708z"/>
	<path fill="#393738" d="M147.132,85.45v5.926h-1.637v-8.099h1.637v0.944c0.341-0.923,1.025-1.385,2.054-1.385
		c0.877,0,1.573,0.311,2.09,0.933s0.783,1.402,0.799,2.342v5.265h-1.629v-5.202c0-0.467-0.171-0.867-0.512-1.2s-0.748-0.5-1.22-0.5
		c-0.467,0-0.871,0.163-1.212,0.488C147.313,85.156,147.189,85.318,147.132,85.45z"/>
	<path fill="#393738" d="M161.276,88.597l1.629,0.583c-0.398,0.551-0.688,0.915-0.865,1.094c-0.877,0.876-1.934,1.314-3.172,1.314
		c-1.233,0-2.288-0.438-3.164-1.314s-1.314-1.934-1.314-3.172s0.438-2.295,1.314-3.172c0.876-0.876,1.931-1.314,3.164-1.314
		c1.238,0,2.295,0.438,3.172,1.314c0.178,0.179,0.467,0.538,0.865,1.078l-1.629,0.599c-0.21-0.257-0.352-0.423-0.425-0.496
		c-0.546-0.546-1.207-0.818-1.983-0.818c-0.771,0-1.432,0.274-1.979,0.822c-0.548,0.549-0.822,1.211-0.822,1.987
		c0,0.771,0.274,1.431,0.822,1.979c0.548,0.548,1.208,0.822,1.979,0.822c0.776,0,1.44-0.272,1.991-0.818
		C160.928,89.012,161.066,88.849,161.276,88.597z"/>
	<path fill="#393738" d="M165.196,78.784h1.637v5.367c0.457-0.876,1.117-1.314,1.983-1.314c0.865,0,1.557,0.311,2.073,0.933
		c0.518,0.622,0.783,1.402,0.799,2.342v5.265h-1.629v-5.202c0-0.467-0.132-0.867-0.397-1.2c-0.265-0.333-0.684-0.5-1.255-0.5
		c-0.677,0-1.201,0.362-1.574,1.086v5.816h-1.637V78.784z"/>
</g>
</svg>
