<?xml version="1.0" encoding="utf-8"?>
<!-- Generator: Adobe Illustrator 16.0.0, SVG Export Plug-In . SVG Version: 6.00 Build 0)  -->
<!DOCTYPE svg PUBLIC "-//W3C//DTD SVG 1.1//EN" "http://www.w3.org/Graphics/SVG/1.1/DTD/svg11.dtd">
<svg version="1.1" xmlns="http://www.w3.org/2000/svg" xmlns:xlink="http://www.w3.org/1999/xlink" x="0px" y="0px" width="24px"
	 height="24px" viewBox="0 0 24 24" enable-background="new 0 0 24 24" xml:space="preserve">
<g id="Ebene_4" display="none">
	<rect x="-6" y="-3" display="inline" fill="#373737" width="36" height="31"/>
</g>
<g id="delet">
	<path fill="#FFFFFF" d="M22.813,3H16V0H8v3H1.188C1.084,3,1,3.084,1,3.188v2.625C1,5.916,1.084,6,1.188,6h21.625
		C22.916,6,23,5.916,23,5.813V3.188C23,3.084,22.916,3,22.813,3z"/>
	<path fill="#FFFFFF" d="M3,8c0,0,0,0.479,0,1.482v12.704C3,23.188,3.542,24,4.466,24h15.068C20.458,24,21,23.188,21,22.186V9.482
		C21,8.479,21,8,21,8H3z M9,20.813C9,20.916,8.916,21,8.813,21H7.188C7.084,21,7,20.916,7,20.813V10.188C7,10.084,7.084,10,7.188,10
		h1.625C8.916,10,9,10.084,9,10.188V20.813z M17,20.813C17,20.916,16.916,21,16.813,21h-1.625C15.084,21,15,20.916,15,20.813V10.188
		C15,10.084,15.084,10,15.188,10h1.625C16.916,10,17,10.084,17,10.188V20.813z"/>
</g>
<g id="edit" display="none">
	<path display="inline" fill="#FFFFFF" d="M22.936,0.474C1.594,1.24,3.134,15.849,3.152,16.372c0.006,0.178,0.039,0.324,0.062,0.482
		c0.584-1.088,1.456-2.514,2.748-4.417c1.683-2.479,5.449-5.665,10.969-7.17c0.266-0.068,0.531,0.079,0.609,0.336
		c0.079,0.259-0.062,0.533-0.318,0.62C17.141,6.251,9.405,9.047,4.327,18.93c0.004,0.003-2.983,5.133-2.983,5.133
		c1.265-1.314,2.04,0.769,3.749-2.752c0.5-1.032,2.165-1.671,3.696-1.929C9.824,19.346,11.692,19,11.692,19h-0.023
		c6.613-1,8.713-4.483,8.713-4.483l-4.545-2.721l6.302-0.637C24.241,7.659,22.936,0.474,22.936,0.474z"/>
</g>
</svg>
