<?xml version="1.0" encoding="utf-8"?>
<!-- Generator: Adobe Illustrator 16.0.0, SVG Export Plug-In . SVG Version: 6.00 Build 0)  -->
<!DOCTYPE svg PUBLIC "-//W3C//DTD SVG 1.1//EN" "http://www.w3.org/Graphics/SVG/1.1/DTD/svg11.dtd">
<svg version="1.1" xmlns="http://www.w3.org/2000/svg" xmlns:xlink="http://www.w3.org/1999/xlink" x="0px" y="0px" width="18px"
	 height="18px" viewBox="0 0 18 18" enable-background="new 0 0 18 18" xml:space="preserve">
<g id="Ebene_1" display="none">
	<path display="inline" fill="#FFFFFF" stroke="#000000" stroke-linecap="round" stroke-miterlimit="10" d="M15.5,5v11.5
		c0,0.553-0.447,1-1,1h-11c-0.553,0-1-0.447-1-1V5"/>
	<path display="inline" d="M7,15.5C7,15.776,6.776,16,6.5,16l0,0C6.224,16,6,15.776,6,15.5v-8C6,7.224,6.224,7,6.5,7l0,0
		C6.776,7,7,7.224,7,7.5V15.5z"/>
	<path display="inline" d="M12,15.5c0,0.276-0.224,0.5-0.5,0.5l0,0c-0.276,0-0.5-0.224-0.5-0.5v-8C11,7.224,11.224,7,11.5,7l0,0
		C11.776,7,12,7.224,12,7.5V15.5z"/>
	<path display="inline" d="M1.5,4C1.224,4,1,3.776,1,3.5l0,0C1,3.224,1.224,3,1.5,3h15C16.776,3,17,3.224,17,3.5l0,0
		C17,3.776,16.776,4,16.5,4H1.5z"/>
	<path display="inline" fill="none" stroke="#000000" stroke-linecap="round" stroke-miterlimit="10" d="M6.5,3V2.5
		c0-0.552,0.448-1,1-1h3c0.553,0,1,0.448,1,1V3"/>
</g>
<g id="Ebene_2">
	<path fill="#FFFFFF" d="M13.552,1.023c0,0,0.104,2.383-0.333,2.977c0,0,2.404-1.578,4.202-1.297
		C17.421,2.703,16.979-0.142,13.552,1.023z"/>
	<path fill="none" stroke="#FFFFFF" stroke-linecap="round" stroke-miterlimit="10" d="M0.688,17.406c0,0,3.818-7.577,9.824-10.235"
		/>
	<path fill="none" stroke="#FFFFFF" stroke-linecap="round" stroke-miterlimit="10" d="M2.472,12.289
		c0,0-1.128-11.008,14.324-11.565"/>
	<path fill="none" stroke="#FFFFFF" stroke-linecap="round" stroke-linejoin="round" stroke-miterlimit="10" d="M16.796,0.724
		c0,0,0.945,5.247-0.577,7.793L12.85,9.144l2.098,1.875c0,0-2.354,2.763-10.354,3.513"/>
</g>
</svg>
